<?xml version="1.0" standalone="no"?>
<!DOCTYPE svg PUBLIC "-//W3C//DTD SVG 20010904//EN"
 "http://www.w3.org/TR/2001/REC-SVG-20010904/DTD/svg10.dtd">
<svg version="1.0" xmlns="http://www.w3.org/2000/svg"
 width="781.000000pt" height="781.000000pt" viewBox="0 0 781.000000 781.000000"
 preserveAspectRatio="xMidYMid meet">
<metadata>
Created by potrace 1.14, written by Peter Selinger 2001-2017
</metadata>
<g transform="translate(0.000000,781.000000) scale(0.100000,-0.100000)"
fill="#000000" stroke="none">
<path d="M905 7234 c-194 -62 -300 -96 -303 -99 -4 -4 63 -243 105 -370 83
-255 207 -526 318 -695 27 -41 52 -77 55 -80 3 -3 19 -23 35 -45 57 -77 170
-187 260 -255 300 -225 663 -288 1240 -215 17 2 53 7 80 10 28 3 75 10 105 15
65 11 97 15 210 30 47 6 101 13 120 15 125 16 265 26 395 26 105 1 294 -9 305
-16 3 -2 30 -6 60 -10 71 -9 214 -46 310 -81 128 -45 360 -180 534 -308 42
-31 80 -56 84 -56 9 0 109 39 177 70 22 10 50 21 63 25 34 10 43 46 47 175 15
503 -286 935 -842 1210 -54 26 -115 55 -135 63 l-36 15 -57 -176 c-31 -98 -58
-182 -60 -189 -5 -15 2 -20 90 -58 89 -39 201 -104 290 -168 69 -50 245 -220
245 -237 0 -5 6 -15 14 -22 14 -14 42 -63 63 -110 l12 -28 -37 23 c-34 22 -71
40 -312 155 -232 111 -484 194 -745 246 -129 26 -135 27 -320 52 -16 2 -55 6
-85 9 -30 3 -66 8 -80 10 -14 2 -53 7 -87 10 -34 3 -70 7 -80 9 -10 2 -45 7
-78 11 -88 10 -211 40 -284 70 -223 92 -355 280 -471 675 -16 52 -32 95 -37
94 -4 0 -83 -25 -174 -54 l-165 -53 12 -48 c29 -110 106 -324 153 -424 67
-142 147 -261 240 -355 92 -93 151 -136 259 -188 45 -22 76 -42 69 -45 -6 -2
-95 -4 -197 -5 -406 -1 -610 65 -800 257 -200 202 -356 521 -485 991 -43 152
-34 139 -80 124z"/>
<path d="M2887 7153 c-11 -19 2 -297 18 -388 21 -123 70 -281 87 -282 7 0 36
-3 63 -6 28 -4 75 -9 105 -12 143 -15 220 -24 254 -31 31 -7 31 -4 -10 51 -97
130 -162 360 -159 563 0 49 -3 82 -10 83 -5 1 -21 2 -35 4 -14 1 -63 5 -110 9
-47 3 -110 8 -142 11 -31 4 -58 2 -61 -2z"/>
<path d="M5377 6682 l-117 -151 59 -78 c32 -43 68 -98 80 -122 37 -72 69 -184
76 -262 4 -41 8 -80 10 -86 6 -17 -12 -17 -22 0 -12 19 -139 119 -207 162
l-59 38 22 -31 c53 -74 118 -263 135 -392 3 -25 8 -54 10 -65 4 -24 17 -161
21 -228 2 -27 4 -50 6 -52 2 -1 38 -6 79 -10 41 -4 77 -8 80 -10 3 -1 37 -6
75 -10 84 -8 77 -8 92 -6 15 1 66 157 87 266 9 44 19 94 22 110 3 17 7 107 9
200 2 176 -9 268 -51 403 -44 142 -139 307 -242 421 l-49 54 -116 -151z"/>
<path d="M3658 5135 c-2 -3 -66 -7 -141 -10 -163 -6 -195 -11 -263 -36 -86
-32 -152 -111 -193 -231 l-19 -55 45 -59 c160 -207 423 -389 702 -486 90 -31
251 -73 316 -83 23 -3 50 -7 60 -9 64 -12 201 -22 353 -26 13 0 12 -24 -3
-110 -15 -85 -18 -168 -17 -445 0 -170 -3 -335 -8 -365 -4 -30 -11 -75 -14
-100 -11 -75 -54 -214 -96 -312 -146 -335 -416 -596 -775 -749 -132 -56 -334
-115 -459 -135 -21 -3 -46 -7 -55 -9 -109 -20 -244 -29 -631 -40 -102 -3 -201
-7 -220 -9 -19 -2 -66 -7 -105 -11 -38 -3 -81 -8 -95 -9 -14 -2 -54 -7 -90
-11 -36 -4 -68 -9 -72 -12 -20 -11 115 -224 239 -378 424 -525 1090 -835 1938
-902 124 -10 572 -10 669 0 266 26 526 85 736 167 30 12 64 24 75 28 10 3 59
25 107 49 49 24 92 43 97 43 28 0 41 41 86 280 4 21 16 94 50 305 2 17 7 53
10 80 3 28 7 66 10 85 3 19 8 71 11 114 3 44 7 87 9 97 2 10 7 50 10 90 4 40
8 80 10 90 2 10 7 59 10 111 4 51 8 109 10 128 2 19 6 81 10 138 22 323 36
755 26 770 -3 5 -78 34 -166 65 -240 83 -340 119 -344 123 -2 2 322 4 720 4
398 0 763 0 810 0 l86 0 70 178 c94 235 91 222 56 223 -82 2 -303 66 -303 88
0 3 7 48 17 99 l17 92 170 0 170 0 -105 60 c-57 34 -111 65 -119 70 -66 39
-458 267 -472 275 -10 6 -271 158 -581 339 -309 181 -569 329 -578 328 -21 -1
-233 -105 -328 -161 -40 -24 -112 -72 -158 -108 l-84 -64 -52 39 c-209 157
-514 291 -777 341 -30 6 -68 13 -85 17 -36 7 -291 15 -297 9z"/>
</g>
</svg>
